<?xml version="1.0" encoding="UTF-8" standalone="no"?>
<!-- Created with Inkscape (http://www.inkscape.org/) -->

<svg
   version="1.1"
   id="svg9"
   width="1024"
   height="1024"
   viewBox="0 0 1024 1024"
   sodipodi:docname="Eye.svg"
   inkscape:version="1.1 (c68e22c387, 2021-05-23)"
   inkscape:export-filename="C:\Users\dylan\Documents\codes\3D Base\resources\models\cube\Eye.png"
   inkscape:export-xdpi="96"
   inkscape:export-ydpi="96"
   xmlns:inkscape="http://www.inkscape.org/namespaces/inkscape"
   xmlns:sodipodi="http://sodipodi.sourceforge.net/DTD/sodipodi-0.dtd"
   xmlns="http://www.w3.org/2000/svg"
   xmlns:svg="http://www.w3.org/2000/svg">
  <defs
     id="defs13" />
  <sodipodi:namedview
     id="namedview11"
     pagecolor="#ffffff"
     bordercolor="#666666"
     borderopacity="1.0"
     inkscape:pageshadow="2"
     inkscape:pageopacity="0.0"
     inkscape:pagecheckerboard="0"
     showgrid="false"
     inkscape:zoom="0.40097608"
     inkscape:cx="307.99842"
     inkscape:cy="740.69256"
     inkscape:window-width="958"
     inkscape:window-height="1008"
     inkscape:window-x="953"
     inkscape:window-y="0"
     inkscape:window-maximized="0"
     inkscape:current-layer="g15" />
  <g
     inkscape:groupmode="layer"
     inkscape:label="Open"
     id="g15"
     style="display:inline">
    <path
       id="path888"
       style="fill:#000000;stroke:#000000;stroke-opacity:1"
       d="M 489.61523 306.98633 C 112.104 306.98633 21.461356 427.65393 5.5019531 455.60742 C 21.545136 428.55784 108.33042 321.06725 475.15625 319.57227 C 392.56249 331.72512 331.87986 395.99123 331.7793 471.41602 C 331.77964 556.49063 408.30125 625.45706 502.69531 625.45703 C 597.08937 625.45706 673.61099 556.49063 673.61133 471.41602 C 673.58943 399.03791 617.66172 336.43514 539.20898 320.97266 C 919.71613 339.25207 1026.1055 538.70508 1026.1055 538.70508 C 1026.1055 538.70508 916.38163 306.98633 489.61523 306.98633 z M 1026.1055 538.70508 C 1026.1055 538.70508 939.09461 629.5332 469.54688 629.5332 C 91.912086 629.5332 19.631114 521.13631 5.7519531 478.64844 C 19.965388 524.64483 93.740805 648.91211 476.42773 648.91211 C 945.97547 648.91211 1026.1055 538.70508 1026.1055 538.70508 z M 5.7519531 478.64844 C 2.5258419 468.20835 2.3320312 461.74805 2.3320312 461.74805 C 2.3320312 461.74805 2.3738882 468.30726 5.7519531 478.64844 z M 504.61328 346.59961 C 578.53535 346.59934 638.46113 400.60862 638.46094 467.23242 C 638.45994 533.85546 578.5345 587.86355 504.61328 587.86328 C 430.69206 587.86355 370.76662 533.85546 370.76562 467.23242 C 370.76544 400.60862 430.69121 346.59934 504.61328 346.59961 z M 507.11328 411.45703 C 471.79525 411.45778 443.16461 437.51847 443.16406 469.66602 C 443.16462 501.81357 471.79525 527.87425 507.11328 527.875 C 542.43207 527.87523 571.06389 501.81426 571.06445 469.66602 C 571.0639 437.51778 542.43207 411.4568 507.11328 411.45703 z " />
  </g>
  <g
     inkscape:groupmode="layer"
     id="layer1"
     inkscape:label="Closed"
     style="display:none"
     sodipodi:insensitive="true">
    <path
       id="path12814"
       style="fill:#000000;fill-opacity:1;stroke:#000000;stroke-width:1px;stroke-linecap:butt;stroke-linejoin:miter;stroke-opacity:1"
       d="m 494.98242,255.17773 c -392.27467,0 -494.61132625,285.56446 -494.61132625,285.56446 L 489.58305,522.223 1024.5352,535.50977 493.81301,496.31978 5.4023438,536.97461 c 0,0 166.8428262,-266.76953 499.4882762,-266.76953 332.64547,0 519.64458,265.30469 519.64458,265.30469 0,0 -137.27811,-280.33204 -529.55278,-280.33204 z m 529.55278,280.33204 c 0,0 -238.14128,108.58984 -567.58793,108.58984 -329.44665,0 -456.57617625,-103.35742 -456.57617625,-103.35742 0,0 101.47558625,121.87109 445.67968625,121.87109 344.2041,0 578.48442,-127.10351 578.48442,-127.10351 z"
       sodipodi:nodetypes="scccccscscscsc" />
  </g>
</svg>
